<svg xmlns="http://www.w3.org/2000/svg" viewBox="0 0 1138 747"><defs><style>.a{fill:#522e78;}.b{fill:#e05a59;}.c{fill:#e05959;}</style></defs><path class="a" d="M0,0ZM0,0Z" transform="translate(0 3)"/><path class="b" d="M0,0Z" transform="translate(0 3)"/><path class="a" d="M0,0ZM0,0Z" transform="translate(0 3)"/><path class="b" d="M0,0ZM0,0Z" transform="translate(0 3)"/><path class="a" d="M0,0ZM0,0ZM0,0ZM0,0Z" transform="translate(0 3)"/><path class="b" d="M0,0ZM0,0Z" transform="translate(0 3)"/><path class="a" d="M0,0ZM0,0ZM0,0ZM0,0Z" transform="translate(0 3)"/><path class="b" d="M0,0Z" transform="translate(0 3)"/><path class="a" d="M0,0ZM0,0Z" transform="translate(0 3)"/><path class="b" d="M0,0ZM0,0Z" transform="translate(0 3)"/><path class="a" d="M0,0ZM0,0ZM0,0ZM0,0Z" transform="translate(0 3)"/><path class="b" d="M0,0ZM0,0Z" transform="translate(0 3)"/><path class="a" d="M0,0ZM0,0ZM0,0ZM0,0Z" transform="translate(0 3)"/><path class="b" d="M0,0ZM0,0Z" transform="translate(0 3)"/><path class="a" d="M0,0ZM0,0ZM0,0ZM0,0Z" transform="translate(0 3)"/><path class="b" d="M0,0Z" transform="translate(0 3)"/><path class="a" d="M0,0ZM0,0Z" transform="translate(0 3)"/><path class="b" d="M0,0Z" transform="translate(0 3)"/><path class="a" d="M0,0ZM0,0Z" transform="translate(0 3)"/><path class="b" d="M0,0Z" transform="translate(0 3)"/><path class="a" d="M0,0ZM0,0Z" transform="translate(0 3)"/><polygon class="a" points="502 514 497 520 500 528 492 525 486 530 486 522 479 518 487 515 489 507 494 514 502 514"/><path class="a" d="M0,0Z" transform="translate(0 3)"/><polygon class="a" points="468 573 463 579 466 587 458 584 452 589 452 581 445 577 453 574 455 567 460 573 468 573"/><path class="a" d="M0,0Z" transform="translate(0 3)"/><polygon class="a" points="414 504 415 510 420 513 415 516 413 522 409 517 403 518 406 512 404 507 410 508 414 504"/><path class="a" d="M0,0Z" transform="translate(0 3)"/><polygon class="a" points="892 575 896 583 905 584 899 591 900 600 892 595 884 600 886 591 879 584 888 583 892 575"/><path class="a" d="M0,0Z" transform="translate(0 3)"/><polygon class="a" points="869 495 873 504 882 505 875 512 877 521 869 516 861 521 862 511 856 505 865 504 869 495"/><path class="a" d="M0,0Z" transform="translate(0 3)"/><polygon class="a" points="934 529 941 532 947 528 946 535 952 539 945 541 942 548 939 542 932 541 936 536 934 529"/><path class="a" d="M0,0Z" transform="translate(0 3)"/><polygon class="a" points="641 284 644 277 639 270 647 270 652 264 654 272 662 274 655 279 655 287 649 282 641 284"/><path class="a" d="M0,0Z" transform="translate(0 3)"/><polygon class="a" points="684 216 687 208 683 202 691 202 695 195 698 203 705 206 699 210 698 218 692 213 684 216"/><path class="a" d="M0,0Z" transform="translate(0 3)"/><polygon class="a" points="772 278 770 273 764 271 768 267 768 261 773 265 779 262 777 268 781 273 775 273 772 278"/><path class="a" d="M0,0Z" transform="translate(0 3)"/><path class="b" d="M0,0Z" transform="translate(0 3)"/><path class="b" d="M0,0ZM0,0Z" transform="translate(0 3)"/><path class="b" d="M0,0ZM0,0Z" transform="translate(0 3)"/><polygon class="b" points="775 507 796 528 767 539 747 517 775 507"/><path class="b" d="M0,0Z" transform="translate(0 3)"/><polygon class="a" points="321 65 338 104 294 103 278 64 321 65"/><path class="a" d="M0,0Z" transform="translate(0 3)"/><polygon class="a" points="838 158 855 197 812 196 796 156 838 158"/><path class="a" d="M0,0Z" transform="translate(0 3)"/><polygon class="a" points="91 241 120 248 101 272 72 264 91 241"/><path class="a" d="M0,0Z" transform="translate(0 3)"/><path class="c" d="M0,0Z" transform="translate(0 3)"/><path class="c" d="M0,0Z" transform="translate(0 3)"/><path class="a" d="M0,0Z" transform="translate(0 3)"/><path class="a" d="M0,0Z" transform="translate(0 3)"/><path class="c" d="M0,0Z" transform="translate(0 3)"/><path class="c" d="M0,0Z" transform="translate(0 3)"/><polygon class="a" points="122 76 135 93 157 91 145 109 153 129 132 124 115 137 114 116 96 104 116 97 122 76"/><path class="a" d="M0,0Z" transform="translate(0 3)"/><path class="c" d="M0,0Z" transform="translate(0 3)"/><path class="c" d="M0,0Z" transform="translate(0 3)"/><path class="a" d="M0,0ZM0,0Z" transform="translate(0 3)"/><path class="c" d="M0,0Z" transform="translate(0 3)"/><path class="a" d="M0,0ZM0,0Z" transform="translate(0 3)"/><path class="c" d="M0,0Z" transform="translate(0 3)"/><path class="c" d="M0,0Z" transform="translate(0 3)"/><path class="c" d="M0,0Z" transform="translate(0 3)"/><path class="c" d="M0,0ZM0,0Z" transform="translate(0 3)"/><path class="c" d="M0,0Z" transform="translate(0 3)"/><path class="c" d="M0,0Z" transform="translate(0 3)"/><path class="a" d="M0,0Z" transform="translate(0 3)"/><path class="a" d="M0,0Z" transform="translate(0 3)"/></svg>